<?xml version="1.0" encoding="UTF-8"?>
<svg id="Layer_1" xmlns="http://www.w3.org/2000/svg" version="1.1" xmlns:xlink="http://www.w3.org/1999/xlink" viewBox="0 0 89.7 48">
  <!-- Generator: Adobe Illustrator 29.0.0, SVG Export Plug-In . SVG Version: 2.1.0 Build 186)  -->
  <defs>
    <style>
      .st0 {
        fill: url(#linear-gradient2);
      }

      .st1 {
        fill: url(#linear-gradient10);
      }

      .st2 {
        fill: url(#linear-gradient1);
      }

      .st3 {
        fill: url(#linear-gradient9);
      }

      .st4 {
        fill: url(#linear-gradient18);
      }

      .st5 {
        fill: url(#linear-gradient8);
      }

      .st6 {
        fill: url(#linear-gradient11);
      }

      .st7 {
        fill: url(#linear-gradient16);
      }

      .st8 {
        fill: url(#linear-gradient12);
      }

      .st9 {
        fill: url(#linear-gradient7);
      }

      .st10 {
        fill: url(#linear-gradient4);
      }

      .st11 {
        fill: url(#linear-gradient14);
      }

      .st12 {
        fill: url(#linear-gradient5);
      }

      .st13 {
        fill: url(#linear-gradient3);
      }

      .st14 {
        fill: url(#linear-gradient15);
      }

      .st15 {
        fill: url(#linear-gradient17);
      }

      .st16 {
        fill: url(#linear-gradient6);
      }

      .st17 {
        fill: url(#linear-gradient13);
      }

      .st18 {
        fill: url(#linear-gradient);
      }

      .st19 {
        fill: url(#New_Gradient_Swatch_1);
      }
    </style>
    <linearGradient id="New_Gradient_Swatch_1" data-name="New Gradient Swatch 1" x1="28" y1="25.7" x2="44.3" y2="26" gradientUnits="userSpaceOnUse">
      <stop offset=".1" stop-color="#a01623"/>
      <stop offset="1" stop-color="#ec1c24"/>
    </linearGradient>
    <linearGradient id="linear-gradient" x1="88.1" y1="31.5" x2="67.8" y2="31.8" gradientUnits="userSpaceOnUse">
      <stop offset="0" stop-color="#a01623"/>
      <stop offset="1" stop-color="#ec1c24"/>
    </linearGradient>
    <linearGradient id="linear-gradient1" x1="87.9" y1="22.8" x2="67.7" y2="23.1" xlink:href="#linear-gradient"/>
    <linearGradient id="linear-gradient2" x1="38.8" y1="18.3" x2="54.8" y2="29.1" gradientUnits="userSpaceOnUse">
      <stop offset="0" stop-color="#2f63ad"/>
      <stop offset="1" stop-color="#429ad5"/>
    </linearGradient>
    <linearGradient id="linear-gradient3" x1="50.2" y1="1.3" x2="66.3" y2="12.1" xlink:href="#linear-gradient2"/>
    <linearGradient id="linear-gradient4" x1="4.3" y1="40.8" x2="81.9" y2="45.5" xlink:href="#linear-gradient2"/>
    <linearGradient id="linear-gradient5" x1="4.3" y1="40.6" x2="81.9" y2="45.2" xlink:href="#linear-gradient2"/>
    <linearGradient id="linear-gradient6" x1="4.3" y1="40.2" x2="81.9" y2="44.9" xlink:href="#linear-gradient2"/>
    <linearGradient id="linear-gradient7" x1="4.3" y1="40" x2="81.9" y2="44.6" xlink:href="#linear-gradient2"/>
    <linearGradient id="linear-gradient8" x1="4.3" y1="39.7" x2="81.9" y2="44.3" xlink:href="#linear-gradient2"/>
    <linearGradient id="linear-gradient9" x1="4.4" y1="39.3" x2="82" y2="44" xlink:href="#linear-gradient2"/>
    <linearGradient id="linear-gradient10" x1="4.4" y1="38.9" x2="82" y2="43.6" xlink:href="#linear-gradient2"/>
    <linearGradient id="linear-gradient11" x1="4.4" y1="38.7" x2="82" y2="43.3" xlink:href="#linear-gradient2"/>
    <linearGradient id="linear-gradient12" x1="4.4" y1="38.1" x2="82" y2="42.8" xlink:href="#linear-gradient2"/>
    <linearGradient id="linear-gradient13" x1="4.4" y1="38" x2="82" y2="42.6" xlink:href="#linear-gradient2"/>
    <linearGradient id="linear-gradient14" x1="4.5" y1="37.7" x2="82.1" y2="42.3" xlink:href="#linear-gradient2"/>
    <linearGradient id="linear-gradient15" x1="4.5" y1="37.2" x2="82.1" y2="41.9" xlink:href="#linear-gradient2"/>
    <linearGradient id="linear-gradient16" x1="4.5" y1="37" x2="82.1" y2="41.7" xlink:href="#linear-gradient2"/>
    <linearGradient id="linear-gradient17" x1="4.5" y1="36.8" x2="82.1" y2="41.5" xlink:href="#linear-gradient2"/>
    <linearGradient id="linear-gradient18" x1="4.5" y1="36.5" x2="82.1" y2="41.1" xlink:href="#linear-gradient2"/>
  </defs>
  <path d="M74.5,25.2c-.4,1.7-.5,2.6-.3,3,.3.5.9,1,1.6,1,.1,0,.7,0,1.1-.5.4-.5.3-1.2,0-2.5-.4-2.1-.9-2.3-1.1-2.4,0,0-.4-.1-.7,0-.4.2-.5.7-.7,1.5Z"/>
  <g>
    <path d="M22.8,25.6c-.8,0-.7.8-.9,1.3-1-.2-2-.5-3-.7-.3,0-.5,0-.7.2-.9,1.2-2.3,1.9-3.5,2.9,0,0-.3,0-.4,0-.2-.2-.3-.2-.6-.2-.3,0-.6,0-.8-.3-.3-.3-.5-.8-.9-1.1-.6-.5-.9-1.2-1.6-1.5-.1,0-.2-.2-.3-.3-.6-.5-1.2-1.1-1.8-1.6-.2-.1-.4-.1-.6-.2-.2,0-.3,0-.4-.2-.4-.4-.9-.5-1.4-.5-.2,0-.6-.1-.6-.2,0-.2,0-.6.2-.7.4-.4,1-.6,1.6-.5.3,0,.6,0,.8-.2.6-.3.7-.2,1.1.3.4.6.5,1.4,1.2,1.9.8.5,1.5,1.1,2.2,1.6.3.2.5.4.8.7.4-.1.9-.3,1.3-.7.3-.4.8-.7,1.2-1.1,0,0,.1-.3.1-.4,0-.2,0-.4,0-.6,0-.4,0-.7-.4-1.1-.4-.4-.4-.9,0-1.4-.4-.3-.9-.5-1.4-.9,0,.3,0,.5,0,.8.1.4.3.7.4,1.1,0,.1,0,.2,0,.4,0,0,0,0-.1,0-.1-.1-.2-.3-.3-.4-.1-.1-.3-.3-.3-.3-.2,0-.3.2-.4.4-.1.3-.2.6-.3.9,0,0-.1,0-.2,0,0-.3,0-.6,0-.8,0,0,0,0-.1-.1-.1.3-.3.5-.4.8l-.2-.2c.1-.3.2-.6.4-.9-.2,0-.4.1-.6.2,0,0,0-.1-.1-.2.3-.1.5-.3.8-.4,0,0,0-.1-.1-.2-.2,0-.3,0-.5,0,0,0,0-.2.1-.2.6,0,.8-.5,1-1,.5-.8.9-1.6,1.4-2.5,0,0,.1-.2,0-.3-.2-.6.1-1.1.3-1.6,0-.1.2-.3.1-.4-.2-.4,0-.4.3-.5,0,0,.2-.4.2-.6,0-.2-.2-.5-.3-.7,0,0,0-.1,0-.1-.6,0-1-.7-1.6-.6-.7,0-1.1-.3-1.5-.9.1,0,.3,0,.3.1.3.4.7.5,1.2.5.3,0,.5.2.8.2.2,0,.5.2.6.2.2-.3.4-.5.6-.7,0,0,0,0,0-.1,0-.6.4-1,.8-1.4,0,0,0-.3,0-.4,0-.4-.2-.9-.3-1.3,0-.7.4-1.3,1.1-1.5.2,0,.5,0,.7,0,.4.1.9.3,1.3,0,0,0,.2,0,.3,0,.2.1.4.3.6.3.2,0,.3-.3.5-.4,0,0,.2.2.2.2.3.6.9.9,1.5,1,.7.1,1.1.7,1,1.5-.1,1-.4,1.2-1.5,1.4.1.2.3.5.4.8-.2,0-.4,0-.6,0v2.7c.5,0,1-.2,1.5-.3,0-.4,0-.9.2-1.4.1-.9,1-1.4,1.9-1.2.5.1,1,.3,1.5.4.3.1.5.5.4,1-.1.6-.2,1.2-.1,1.8,0,.4-.3.7-.8.8,0,.1,0,.3,0,.4-.2.2-.4.4-.7.6.4.2.7.4,1,.6.6.4,1.2.6,1.9.8.4,0,.7.4,1.1.6.4.2.7.3,1.1.4.2,0,.5-.1.7-.2,0,.1,0,.3-.1.5h.7s0,0,0,0c-.1,0-.3.1-.4.2,0,0,0,0,.1,0,0,.3-.1.6-.2.8-.2,0-.3-.1-.4,0-.2,0-.4,0-.3.4,0,.2,0,.4,0,.6,0,0,0,0-.1,0-.2-.4-.4-.8-.5-1.2-.1-.3-.2-.4-.6-.4-.8,0-1.6-.2-2.3-.7-.2-.1-.5-.2-.7-.2-.7-.1-1.3-.2-2-.3-.2,0-.4,0-.7.1-.8.3-.9,1.1-1.3,1.6-.5.6-.9,1.3-1.4,2.1.7.2,1.4.4,2.1.6.5.2.9.4,1.3.6.2.1.3.5.3.8.2,1,.4,2,.6,3.1.1.7.3,1.5.4,2.2,0,.4.3.6.6.7.7.3,1.4.5,2.2.5.3,0,.7,0,.8.3.2.3-.2.6-.4.8-.5.4-1.1.9-1.8.8-.1,0-.3.2-.4.3-.9.8-1.2.7-1.6-.3-.3-.9-.5-1.8-.8-2.6-.3-.8-.7-1.6-1-2.4-.2-.7-.4-1.5-.6-2.3Z"/>
    <path d="M73.3,27.8c.5,0,1-.1,1.2.4,0,0,.3,0,.4,0,.4,0,.8,0,1.2,0-.2-1.3-.3-2.8-.5-4.3-.3.5-.5.9-.8,1.4-.2.3-.3.6-.6.7-.7.4-1.5.7-2.3,1-.4.1-.5,0-.5-.4,0-.9.2-7.2.2-8.5,0-.3,0-.5-.4-.6-.6-.3-1.1-.3-1.7-.5-.4-.1-.8-.5-1.2-.7,0,0,0-.1,0-.2.5,0,1,.1,1.5.2,0,0,0,0,0-.1-.1-.1-.2-.3-.4-.4,0,0,0,0,0-.1.3.2.6.4.8.6.2.2.4.3.7.4,1,.2,2,.5,3,.8.5.1,1,.3,1.4.4,0-.7,0-1.4,0-2.1,0-.7.3-.9.9-1.2.5-.2.9,0,1.1.4.5.7.8,1.4,1.3,2.2,0,0,.2,0,.2-.2.3-.6.9-.9,1.3-1.3.1-.1.2-.3.3-.4.1-.3.2-.5.4-.8.4-.6.5-1.2.1-1.9-.8,0-1.2-.7-1.6-1.4,0-.1,0-.4.1-.5.2-.4.2-.7-.2-.9-.2-.1-.3-.3-.5-.4.5,0,.9,0,1.4.1.1,0,.3,0,.4,0,.7.4,1.4.9,2.2,1.4-.1,0-.2.1-.3.2,0,.4,0,.8,0,1.2.1,1.1-.6,2-1,3-.4.8-.3,1.6-.2,2.4.3,1.7.7,3.4,1,5.1,0,.2,0,.4,0,.5-.3.6-.2,1.2,0,1.8.1.6,0,.8-.6.7-.3,0-.6,0-1,0,0,.3,0,.5,0,.8,0,1.2.1,2.4.2,3.6,0,.3,0,.4-.4.4-.3,0-.7,0-1,0,0,.2,0,.3,0,.4-.6-.1-.6-.1-.7.5,0,.6-.2,1.3-.3,1.9,0,.6,0,1.1.5,1.6,0,0,.2.2.2.3,0,.2,0,.5,0,.6,0,0-.4,0-.6,0-.2,0-.3-.2-.4-.3-.2-.2,0-.7-.5-.6,0-.4-.2-.8-.2-1.2,0-.8.1-1.6.1-2.5,0-.1-.1-.4-.3-.4-.7-.4-1.5-.7-2.2-1-.4-.2-.8-.3-1.2-.4-.1,0-.3,0-.4.1-.2.2-.3.5-.7.4-.2-.1-.3-.8-.1-1.1,0,0,.1-.2.2-.2.4-.2.5-.5,0-.9ZM81.9,13.1c.5-.5,0-1,.2-1.5-.5.4-.5.7-.2,1.5Z"/>
  </g>
  <path class="st19" d="M46,21.8c-.4,0-.8,0-1.2,0-2.9,0-5.9,0-8.8,0-.9,0-1.3.8-.9,1.6.3.5.7.5,1.2.5,1.8,0,3.6,0,5.4,0,.5,0,1,0,1.5.1,1.4.2,2.4,1.1,3.1,2.3,0,.1,0,.4,0,.5-.4.9-.9,1.7-1.3,2.6-.7,1.3-1.4,2.7-2,4.1-.1.2-.2.4-.5.4-3.8,0-7.6,0-11.3,0,0,0,0,0-.2,0v-3.9c.2,0,.3,0,.5,0,3.4,0,6.9,0,10.3,0,.9,0,1.3-.8.9-1.5-.2-.4-.5-.5-.9-.5-1.8,0-3.6,0-5.4,0-1,0-2,0-3-.4-1.7-.7-2.5-2.1-2.7-3.9-.1-1,0-2.1.4-3,.6-1.2,1.6-2,2.9-2.4.5-.1,1-.2,1.6-.2,3.5,0,7,0,10.5,0,.1,0,.2,0,.3,0-.2,1.3-.3,2.6-.5,3.9Z"/>
  <g>
    <path class="st18" d="M77.9,31.2c0,.1-.2.2-.2.3-.8,1.5-2.2,2.2-3.8,2.3-3,0-6,0-9,0-.1,0-.4,0-.4-.2-.7-1.2-1.3-2.5-2.1-3.8h.5c3.2,0,6.5,0,9.7,0,.2,0,.4.1.5.1.2,0,.4,0,.5-.2.3-.3.4-.4.8-.2,1.1.5,2.3.9,3.4,1.4v.2Z"/>
    <path class="st2" d="M75.7,24.3c.2,1.3.3,2.7.5,4-.5,0-.9,0-1.3,0-.2,0-.4-.2-.6-.3-.2,0-.5-.2-.7-.2-1.4,0-2.9,0-4.3,0-1.2,0-2.4,0-3.6-.2-.8,0-1.5-.5-2.1-1-.2-.2-.3-.3-.3-.6,0-1.4-.3-2.6-1.1-3.8,0,.9.2,1.6.2,2.4-.8-2-.2-4.7,1.5-5.9.8-.5,1.6-.8,2.5-.9,1.7,0,3.4,0,5.1,0,0,0,.1,0,.2,0v3.9c-.3,0-.5,0-.7,0-1.2,0-2.5,0-3.7,0-.6,0-1,.3-1.1.8,0,.7.2,1.1.9,1.2.3,0,.6,0,.9,0,1.2,0,2.4,0,3.7,0,0,.9-.1,1.8-.2,2.6,0,.5,0,.6.5.4.7-.3,1.5-.6,2.2-1,.2,0,.4-.3.5-.5.2-.4.4-.8.6-1.2,0,0,.1,0,.2,0Z"/>
  </g>
  <g>
    <path class="st0" d="M64.5,33.8c-1.5,0-2.9,0-4.3,0-.1,0-.3-.2-.4-.3-.3-.5-.5-1-.8-1.5,0-.1-.3-.2-.4-.2-2.2.5-4.3.1-6.2-1-.7-.4-1.4-.9-2.1-1.4-.1,0-.2-.1-.4-.3-.5.9-1,1.8-1.5,2.7-.3.5-.5,1.1-.8,1.6,0,.1-.2.3-.3.3-1.5,0-2.9,0-4.5,0,.3-.7.6-1.3.9-1.8,1.1-2.1,2.2-4.2,3.3-6.3.1-.3.1-.4,0-.7-.9-2.1-1.1-4.4-.5-6.6,0,0,0-.2.2-.3-.3,3.5.7,6.7,3,9.3,2.3,2.7,5.3,4,8.9,4.1,0-.6-.4-.6-.7-.6-2.4-.2-4.4-1.2-6.2-2.7-2.1-1.7-3.6-3.8-4.1-6.5-.4-1.9-.3-3.8,1.2-5.3.9-.9,2.1-1.4,3.3-1.6.2,0,.3,0,.5,0-.4.2-.9.4-1.3.7-1.4.8-2.5,1.9-2.8,3.5-.2,1,0,2,.5,3,.3-.6.6-1.1.8-1.6.4-.7.8-1.4,1.1-2.2.1-.2.3-.4.6-.4,1.4,0,2.8,0,4.2,0,.3,0,.4,0,.6.3,1.6,3,3.2,6,4.7,9.1.1.2.2.4.4.7,1.6-1.6,1.1-3.5,1-5.4,0,0,.1,0,.2.2,1.2,2,1.3,4,0,6-.4.7-.4,1.1,0,1.7.6,1,1.1,2.1,1.7,3.2,0,.1.1.2.2.4ZM53.6,21.5c-.1.2-.2.3-.2.4-.6,1.1-1.1,2.3-1.7,3.4-.1.3,0,.4,0,.6,1.3,1.3,2.9,2.1,4.7,2.5.2,0,.4,0,.7,0-1.2-2.3-2.3-4.6-3.5-6.9Z"/>
    <path class="st13" d="M77,9.5c-1.1.6-2.3.9-3.4,1.1-1,.2-2,.3-3,.6-.2,0-.4.2-.6.4-.7.9-1.4,1.7-2.2,2.6-.1.1-.3.2-.5.2-.5,0-1,0-1.6,0-.2,0-.4-.1-.5-.3-.4-.5-.7-1-1.1-1.5-.2-.2-.4-.3-.6-.2-2.4.4-4.9.9-7.3,1.3-.6.1-1.3.2-2,.3-.1,0-.3,0-.5-.2-1-1-2-2.1-2.9-3.2,0,0-.2-.3-.1-.4,0-.1.2-.2.4-.3,1-.3,1.8,0,2.6.5.4.2.8.5,1.1.7.7.4,1.4.6,2.2.3,1.5-.5,3-.8,4.6-1.3.1,0,.2,0,.4-.2-2.3-1.9-4.5-3.7-6.8-5.7,1-.2,1.9-.2,2.7,0,.9.3,1.7.7,2.5,1.1,2,.9,4.1,1.8,6.1,2.8,1.2.6,2.3.6,3.6.4,1.4-.2,2.8-.4,4.3-.5.5,0,1,0,1.5.2.5.1.9.4,1.1.9Z"/>
  </g>
  <g>
    <path class="st10" d="M6.8,39.6h-1.5v-.9h4.2v.9h-1.5v3.9h-1.1v-3.9Z"/>
    <path class="st12" d="M11,43.3c-.4-.2-.7-.5-.9-.9s-.3-.8-.3-1.3.1-.9.3-1.3c.2-.4.5-.7.9-.9.4-.2.9-.3,1.4-.3s1,.1,1.4.3c.4.2.7.5.9.9.2.4.3.8.3,1.3s-.1.9-.3,1.3c-.2.4-.5.7-.9.9-.4.2-.9.3-1.4.3s-1-.1-1.4-.3ZM13.1,42.4c.2-.1.4-.3.5-.5.1-.2.2-.5.2-.8s0-.6-.2-.8-.3-.4-.5-.5c-.2-.1-.5-.2-.8-.2s-.5,0-.8.2c-.2.1-.4.3-.5.5-.1.2-.2.5-.2.8s0,.6.2.8c.1.2.3.4.5.5.2.1.5.2.8.2s.5,0,.8-.2Z"/>
    <path class="st16" d="M16.4,43c-.4-.4-.6-.9-.6-1.6v-2.7h1.1v2.7c0,.9.4,1.3,1.1,1.3s.6-.1.8-.3c.2-.2.3-.5.3-1v-2.7h1.1v2.7c0,.7-.2,1.3-.6,1.6-.4.4-.9.6-1.6.6s-1.2-.2-1.6-.6Z"/>
    <path class="st9" d="M24.3,43.5l-.9-1.3h-1v1.3h-1.1v-4.8h2.1c.4,0,.8,0,1.1.2.3.1.6.3.7.6.2.3.3.6.3.9s0,.7-.3.9-.4.5-.7.6l1.1,1.6h-1.2ZM24.1,39.8c-.2-.1-.4-.2-.8-.2h-.9v1.7h.9c.3,0,.6,0,.8-.2.2-.1.3-.4.3-.6s0-.5-.3-.6Z"/>
    <path class="st5" d="M26.8,43.4c-.4-.1-.6-.2-.9-.4l.4-.8c.2.2.5.3.7.4.3,0,.6.1.9.1s.6,0,.7-.1c.2,0,.2-.2.2-.4s0-.2-.1-.3-.2-.1-.3-.2c-.1,0-.3,0-.6-.2-.4,0-.7-.2-.9-.3-.2,0-.4-.2-.6-.4-.2-.2-.3-.5-.3-.8s0-.5.2-.8.4-.4.7-.5c.3-.1.7-.2,1.1-.2s.6,0,.9.1.6.2.8.3l-.3.8c-.4-.3-.9-.4-1.3-.4s-.5,0-.7.2c-.1.1-.2.2-.2.4s0,.3.3.4.4.2.8.2c.4,0,.7.2.9.3.2,0,.4.2.6.4.2.2.3.4.3.8s0,.5-.2.8c-.2.2-.4.4-.7.5s-.7.2-1.1.2-.8,0-1.1-.2Z"/>
    <path class="st3" d="M35.9,42.5h-2.2l-.4,1h-1.1l2.2-4.8h1.1l2.2,4.8h-1.2l-.4-1ZM35.5,41.6l-.8-1.9-.8,1.9h1.5Z"/>
    <path class="st1" d="M42.4,38.7v4.8h-.9l-2.4-2.9v2.9h-1.1v-4.8h.9l2.4,2.9v-2.9h1.1Z"/>
    <path class="st6" d="M43.6,38.7h2.2c.5,0,1,.1,1.4.3.4.2.7.5.9.8.2.4.3.8.3,1.3s-.1.9-.3,1.3c-.2.4-.5.6-.9.8-.4.2-.9.3-1.4.3h-2.2v-4.8ZM45.7,42.6c.5,0,.9-.1,1.2-.4.3-.3.4-.6.4-1.1s-.1-.8-.4-1.1c-.3-.3-.7-.4-1.2-.4h-1v3h1Z"/>
    <path class="st8" d="M52.2,39.6h-1.5v-.9h4.2v.9h-1.5v3.9h-1.1v-3.9Z"/>
    <path class="st17" d="M58.6,43.5l-.9-1.3h-1v1.3h-1.1v-4.8h2.1c.4,0,.8,0,1.1.2.3.1.6.3.7.6.2.3.3.6.3.9s0,.7-.3.9-.4.5-.7.6l1.1,1.6h-1.2ZM58.3,39.8c-.2-.1-.4-.2-.8-.2h-.9v1.7h.9c.3,0,.6,0,.8-.2.2-.1.3-.4.3-.6s0-.5-.3-.6Z"/>
    <path class="st11" d="M63.7,42.5h-2.2l-.4,1h-1.1l2.2-4.8h1.1l2.2,4.8h-1.2l-.4-1ZM63.4,41.6l-.8-1.9-.8,1.9h1.5Z"/>
    <path class="st14" d="M70.2,38.7l-2.1,4.8h-1.1l-2.1-4.8h1.2l1.5,3.5,1.5-3.5h1.1Z"/>
    <path class="st7" d="M74.4,42.6v.9h-3.7v-4.8h3.7v.9h-2.5v1h2.2v.9h-2.2v1.1h2.6Z"/>
    <path class="st15" d="M75.3,38.7h1.1v3.9h2.4v.9h-3.5v-4.8Z"/>
    <path class="st4" d="M79.9,43.4c-.4-.1-.6-.2-.9-.4l.4-.8c.2.2.5.3.7.4.3,0,.6.1.9.1s.6,0,.7-.1c.2,0,.2-.2.2-.4s0-.2-.1-.3-.2-.1-.3-.2c-.1,0-.3,0-.6-.2-.4,0-.7-.2-.9-.3-.2,0-.4-.2-.6-.4-.2-.2-.3-.5-.3-.8s0-.5.2-.8.4-.4.7-.5c.3-.1.7-.2,1.1-.2s.6,0,.9.1.6.2.8.3l-.3.8c-.4-.3-.9-.4-1.3-.4s-.5,0-.7.2c-.1.1-.2.2-.2.4s0,.3.3.4.4.2.8.2c.4,0,.7.2.9.3.2,0,.4.2.6.4.2.2.3.4.3.8s0,.5-.2.8c-.2.2-.4.4-.7.5s-.7.2-1.1.2-.8,0-1.1-.2Z"/>
  </g>
</svg>