<?xml version="1.0" encoding="UTF-8"?>
<svg id="Layer_1" xmlns="http://www.w3.org/2000/svg" version="1.1" xmlns:xlink="http://www.w3.org/1999/xlink" viewBox="0 0 60.2 32.2">
  <!-- Generator: Adobe Illustrator 29.0.0, SVG Export Plug-In . SVG Version: 2.1.0 Build 186)  -->
  <defs>
    <style>
      .st0 {
        fill: url(#linear-gradient2);
      }

      .st1 {
        fill: url(#linear-gradient10);
      }

      .st2 {
        fill: url(#linear-gradient1);
      }

      .st3 {
        fill: url(#linear-gradient9);
      }

      .st4 {
        fill: url(#linear-gradient18);
      }

      .st5 {
        fill: url(#linear-gradient8);
      }

      .st6 {
        fill: url(#linear-gradient11);
      }

      .st7 {
        fill: url(#linear-gradient16);
      }

      .st8 {
        fill: url(#linear-gradient12);
      }

      .st9 {
        fill: url(#linear-gradient7);
      }

      .st10 {
        fill: url(#linear-gradient4);
      }

      .st11 {
        fill: url(#linear-gradient14);
      }

      .st12 {
        fill: url(#linear-gradient5);
      }

      .st13 {
        fill: url(#linear-gradient3);
      }

      .st14 {
        fill: url(#linear-gradient15);
      }

      .st15 {
        fill: url(#linear-gradient17);
      }

      .st16 {
        fill: url(#linear-gradient6);
      }

      .st17 {
        fill: url(#linear-gradient13);
      }

      .st18 {
        fill: url(#linear-gradient);
      }

      .st19 {
        fill: url(#New_Gradient_Swatch_1);
      }
    </style>
    <linearGradient id="New_Gradient_Swatch_1" data-name="New Gradient Swatch 1" x1="23.2" y1="16.8" x2="29.5" y2="16.9" gradientUnits="userSpaceOnUse">
      <stop offset=".1" stop-color="#a01623"/>
      <stop offset="1" stop-color="#ec1c24"/>
    </linearGradient>
    <linearGradient id="linear-gradient" x1="46.4" y1="19" x2="38.6" y2="19.1" gradientUnits="userSpaceOnUse">
      <stop offset="0" stop-color="#a01623"/>
      <stop offset="1" stop-color="#ec1c24"/>
    </linearGradient>
    <linearGradient id="linear-gradient1" x1="46.3" y1="15.7" x2="38.5" y2="15.8" xlink:href="#linear-gradient"/>
    <linearGradient id="linear-gradient2" x1="27.4" y1="13.9" x2="33.6" y2="18.1" gradientUnits="userSpaceOnUse">
      <stop offset="0" stop-color="#2f63ad"/>
      <stop offset="1" stop-color="#429ad5"/>
    </linearGradient>
    <linearGradient id="linear-gradient3" x1="31.8" y1="7.4" x2="38" y2="11.5" xlink:href="#linear-gradient2"/>
    <linearGradient id="linear-gradient4" x1="14.1" y1="22.6" x2="44" y2="24.4" xlink:href="#linear-gradient2"/>
    <linearGradient id="linear-gradient5" x1="14.1" y1="22.5" x2="44" y2="24.3" xlink:href="#linear-gradient2"/>
    <linearGradient id="linear-gradient6" x1="14.1" y1="22.4" x2="44" y2="24.2" xlink:href="#linear-gradient2"/>
    <linearGradient id="linear-gradient7" x1="14.1" y1="22.3" x2="44" y2="24.1" xlink:href="#linear-gradient2"/>
    <linearGradient id="linear-gradient8" x1="14.1" y1="22.1" x2="44" y2="23.9" xlink:href="#linear-gradient2"/>
    <linearGradient id="linear-gradient9" x1="14.2" y1="22" x2="44" y2="23.8" xlink:href="#linear-gradient2"/>
    <linearGradient id="linear-gradient10" x1="14.2" y1="21.9" x2="44" y2="23.7" xlink:href="#linear-gradient2"/>
    <linearGradient id="linear-gradient11" x1="14.2" y1="21.8" x2="44" y2="23.5" xlink:href="#linear-gradient2"/>
    <linearGradient id="linear-gradient12" x1="14.2" y1="21.6" x2="44" y2="23.3" xlink:href="#linear-gradient2"/>
    <linearGradient id="linear-gradient13" x1="14.2" y1="21.5" x2="44" y2="23.3" xlink:href="#linear-gradient2"/>
    <linearGradient id="linear-gradient14" x1="14.2" y1="21.4" x2="44" y2="23.2" xlink:href="#linear-gradient2"/>
    <linearGradient id="linear-gradient15" x1="14.2" y1="21.2" x2="44.1" y2="23" xlink:href="#linear-gradient2"/>
    <linearGradient id="linear-gradient16" x1="14.2" y1="21.1" x2="44.1" y2="22.9" xlink:href="#linear-gradient2"/>
    <linearGradient id="linear-gradient17" x1="14.2" y1="21" x2="44.1" y2="22.8" xlink:href="#linear-gradient2"/>
    <linearGradient id="linear-gradient18" x1="14.2" y1="20.9" x2="44.1" y2="22.7" xlink:href="#linear-gradient2"/>
  </defs>
  <path d="M41.1,16.6c-.1.7-.2,1-.1,1.2.1.2.4.4.6.4,0,0,.3,0,.4-.2.2-.2.1-.4,0-1-.2-.8-.3-.9-.4-.9,0,0-.1,0-.3,0-.2,0-.2.3-.3.6Z"/>
  <g>
    <path d="M21.2,16.8c-.3,0-.3.3-.3.5-.4,0-.8-.2-1.1-.3-.1,0-.2,0-.3,0-.4.5-.9.7-1.3,1.1,0,0-.1,0-.2,0,0,0-.1,0-.2,0-.1,0-.2,0-.3-.1-.1-.1-.2-.3-.3-.4-.2-.2-.3-.5-.6-.6,0,0,0,0-.1-.1-.2-.2-.4-.4-.7-.6,0,0-.2,0-.2,0,0,0-.1,0-.2,0-.2-.2-.3-.2-.6-.2,0,0-.2,0-.2,0,0,0,0-.2,0-.3.2-.2.4-.2.6-.2.1,0,.2,0,.3,0,.2-.1.3,0,.4.1.2.2.2.5.5.7.3.2.6.4.9.6.1,0,.2.2.3.3.2,0,.4,0,.5-.3.1-.2.3-.3.5-.4,0,0,0,0,0-.2,0,0,0-.2,0-.2,0-.2,0-.3-.1-.4-.2-.1-.1-.3,0-.5-.2-.1-.3-.2-.6-.3,0,.1,0,.2,0,.3,0,.1.1.3.2.4,0,0,0,0,0,.1,0,0,0,0,0,0,0,0,0-.1-.1-.2,0,0-.1-.1-.1-.1,0,0-.1,0-.2.1,0,.1,0,.2-.1.3,0,0,0,0,0,0,0-.1,0-.2,0-.3,0,0,0,0,0,0,0,0-.1.2-.2.3h0c0-.2,0-.3.1-.4,0,0-.2,0-.2,0,0,0,0,0,0,0,.1,0,.2-.1.3-.2,0,0,0,0,0,0,0,0-.1,0-.2,0,0,0,0,0,0,0,.2,0,.3-.2.4-.4.2-.3.4-.6.5-.9,0,0,0,0,0-.1,0-.2,0-.4.1-.6,0,0,0-.1,0-.1,0-.1,0-.2.1-.2,0,0,0-.1,0-.2,0,0,0-.2-.1-.3,0,0,0,0,0,0-.2,0-.4-.3-.6-.2-.3,0-.4-.1-.6-.3,0,0,.1,0,.1,0,.1.2.3.2.5.2,0,0,.2,0,.3,0,0,0,.2,0,.2,0,0-.1.2-.2.2-.3,0,0,0,0,0,0,0-.2.2-.4.3-.5,0,0,0-.1,0-.2,0-.2,0-.3-.1-.5,0-.3.1-.5.4-.6,0,0,.2,0,.3,0,.2,0,.3.1.5,0,0,0,0,0,.1,0,0,0,.2.1.2.1,0,0,.1-.1.2-.2,0,0,0,0,0,0,.1.2.3.3.6.4.3,0,.4.3.4.6,0,.4-.1.5-.6.5,0,0,0,.2.2.3,0,0-.1,0-.2,0v1c.2,0,.4,0,.6-.1,0-.2,0-.3,0-.5,0-.3.4-.5.7-.4.2,0,.4.1.6.2.1,0,.2.2.2.4,0,.2,0,.4,0,.7,0,.1-.1.3-.3.3,0,0,0,.1,0,.1,0,0-.2.1-.3.2.1,0,.3.1.4.2.2.2.5.2.7.3.1,0,.3.2.4.2.1,0,.3.1.4.1,0,0,.2,0,.3,0,0,0,0,.1,0,.2h.3s0,0,0,0c0,0-.1,0-.2,0,0,0,0,0,0,0,0,.1,0,.2,0,.3,0,0-.1,0-.2,0,0,0-.1,0-.1.1,0,0,0,.2,0,.2,0,0,0,0,0,0,0-.1-.1-.3-.2-.4,0-.1,0-.1-.2-.1-.3,0-.6,0-.9-.3,0,0-.2,0-.3,0-.3,0-.5,0-.8-.1,0,0-.2,0-.3,0-.3,0-.3.4-.5.6-.2.2-.4.5-.5.8.3,0,.6.1.8.2.2,0,.4.1.5.2,0,0,0,.2.1.3,0,.4.2.8.2,1.2,0,.3,0,.6.1.8,0,.1,0,.2.2.3.3.1.5.2.8.2.1,0,.3,0,.3.1,0,.1,0,.2-.2.3-.2.2-.4.3-.7.3,0,0-.1,0-.1.1-.3.3-.5.3-.6-.1-.1-.3-.2-.7-.3-1-.1-.3-.3-.6-.4-.9,0-.3-.1-.6-.2-.9Z"/>
    <path d="M40.7,17.6c.2,0,.4,0,.5.1,0,0,.1,0,.2,0,.2,0,.3,0,.5,0,0-.5-.1-1.1-.2-1.6-.1.2-.2.4-.3.5,0,0-.1.2-.2.3-.3.1-.6.3-.9.4-.1,0-.2,0-.2-.1,0-.4,0-2.8,0-3.3,0-.1,0-.2-.2-.2-.2-.1-.4-.1-.7-.2-.2,0-.3-.2-.5-.3,0,0,0,0,0,0,.2,0,.4,0,.6,0,0,0,0,0,0,0,0,0,0-.1-.1-.2,0,0,0,0,0,0,.1,0,.2.2.3.2,0,0,.1.1.3.2.4,0,.8.2,1.2.3.2,0,.4.1.6.2,0-.3,0-.5,0-.8,0-.3.1-.3.3-.4.2,0,.3,0,.4.1.2.3.3.6.5.8,0,0,0,0,0,0,.1-.2.3-.3.5-.5,0,0,0-.1.1-.2,0,0,0-.2.1-.3.1-.2.2-.5,0-.7-.3,0-.5-.3-.6-.5,0,0,0-.1,0-.2,0-.1,0-.3,0-.3,0,0-.1-.1-.2-.2.2,0,.4,0,.5,0,0,0,.1,0,.1,0,.3.2.6.3.9.5,0,0,0,0-.1,0,0,.2,0,.3,0,.5,0,.4-.2.8-.4,1.1-.2.3-.1.6,0,.9.1.7.3,1.3.4,2,0,0,0,.1,0,.2-.1.2,0,.5,0,.7,0,.2,0,.3-.2.3-.1,0-.2,0-.4,0,0,0,0,.2,0,.3,0,.5,0,.9,0,1.4,0,.1,0,.2-.2.2-.1,0-.3,0-.4,0,0,0,0,.1,0,.2-.2,0-.2,0-.3.2,0,.2,0,.5-.1.7,0,.2,0,.4.2.6,0,0,0,0,0,.1,0,0,0,.2,0,.2,0,0-.1,0-.2,0,0,0-.1,0-.2-.1,0,0,0-.3-.2-.2,0-.2,0-.3,0-.5,0-.3,0-.6,0-.9,0,0,0-.1-.1-.2-.3-.1-.6-.3-.9-.4-.1,0-.3-.1-.5-.2,0,0,0,0-.1,0,0,0-.1.2-.3.1,0,0-.1-.3,0-.4,0,0,0,0,0,0,.1,0,.2-.2,0-.4ZM44,11.9c.2-.2,0-.4,0-.6-.2.2-.2.3,0,.6Z"/>
  </g>
  <path class="st19" d="M30.2,15.3c-.1,0-.3,0-.5,0-1.1,0-2.3,0-3.4,0-.3,0-.5.3-.4.6,0,.2.3.2.4.2.7,0,1.4,0,2.1,0,.2,0,.4,0,.6,0,.6,0,.9.4,1.2.9,0,0,0,.1,0,.2-.2.3-.3.7-.5,1-.3.5-.5,1-.8,1.6,0,0,0,.1-.2.1-1.5,0-2.9,0-4.4,0,0,0,0,0,0,0v-1.5c0,0,.1,0,.2,0,1.3,0,2.6,0,4,0,.4,0,.5-.3.4-.6,0-.1-.2-.2-.3-.2-.7,0-1.4,0-2.1,0-.4,0-.8,0-1.1-.2-.7-.3-1-.8-1-1.5,0-.4,0-.8.2-1.2.2-.5.6-.8,1.1-.9.2,0,.4,0,.6,0,1.4,0,2.7,0,4.1,0,0,0,0,0,.1,0,0,.5-.1,1-.2,1.5Z"/>
  <g>
    <path class="st18" d="M42.5,18.9s0,0,0,.1c-.3.6-.8.9-1.5.9-1.2,0-2.3,0-3.5,0,0,0-.1,0-.2,0-.3-.5-.5-1-.8-1.5h.2c1.2,0,2.5,0,3.7,0,0,0,.1,0,.2,0,0,0,.1,0,.2,0,0-.1.2-.1.3,0,.4.2.9.4,1.3.5h0Z"/>
    <path class="st2" d="M41.6,16.2c0,.5.1,1,.2,1.5-.2,0-.3,0-.5,0,0,0-.1,0-.2,0,0,0-.2,0-.3,0-.6,0-1.1,0-1.7,0-.5,0-.9,0-1.4,0-.3,0-.6-.2-.8-.4,0,0-.1-.1,0-.2,0-.5-.1-1-.4-1.5,0,.3,0,.6,0,.9-.3-.8,0-1.8.6-2.3.3-.2.6-.3.9-.3.7,0,1.3,0,2,0,0,0,0,0,0,0v1.5c0,0-.2,0-.3,0-.5,0-.9,0-1.4,0-.2,0-.4.1-.4.3,0,.3,0,.4.4.5.1,0,.2,0,.4,0,.5,0,.9,0,1.4,0,0,.4,0,.7,0,1,0,.2,0,.2.2.2.3-.1.6-.2.8-.4,0,0,.1-.1.2-.2,0-.2.2-.3.2-.5,0,0,0,0,0,0Z"/>
  </g>
  <g>
    <path class="st0" d="M37.3,19.9c-.6,0-1.1,0-1.7,0,0,0-.1,0-.2-.1-.1-.2-.2-.4-.3-.6,0,0-.1,0-.2,0-.8.2-1.6,0-2.4-.4-.3-.2-.5-.4-.8-.5,0,0,0,0-.2-.1-.2.4-.4.7-.6,1.1-.1.2-.2.4-.3.6,0,0,0,0-.1,0-.6,0-1.1,0-1.7,0,.1-.3.2-.5.4-.7.4-.8.8-1.6,1.3-2.4,0,0,0-.2,0-.3-.3-.8-.4-1.7-.2-2.5,0,0,0,0,0-.1-.1,1.4.3,2.6,1.2,3.6.9,1,2,1.5,3.4,1.6,0-.2-.1-.2-.3-.2-.9,0-1.7-.5-2.4-1-.8-.6-1.4-1.5-1.6-2.5-.2-.7-.1-1.5.5-2,.4-.4.8-.5,1.3-.6,0,0,.1,0,.2,0-.2,0-.4.2-.5.3-.5.3-1,.7-1.1,1.4,0,.4,0,.8.2,1.2.1-.2.2-.4.3-.6.1-.3.3-.5.4-.8,0,0,.1-.1.2-.1.5,0,1.1,0,1.6,0,.1,0,.2,0,.2.1.6,1.2,1.2,2.3,1.8,3.5,0,0,0,.1.1.3.6-.6.4-1.4.4-2.1,0,0,0,0,0,0,.4.8.5,1.5,0,2.3-.1.3-.1.4,0,.6.2.4.4.8.7,1.2,0,0,0,0,0,.2ZM33.1,15.2c0,0,0,.1,0,.2-.2.4-.4.9-.7,1.3,0,0,0,.2,0,.2.5.5,1.1.8,1.8,1,0,0,.1,0,.3,0-.5-.9-.9-1.8-1.3-2.6Z"/>
    <path class="st13" d="M42.1,10.5c-.4.2-.9.3-1.3.4-.4,0-.8.1-1.2.2,0,0-.2,0-.2.2-.3.3-.6.7-.8,1,0,0-.1,0-.2,0-.2,0-.4,0-.6,0,0,0-.1,0-.2,0-.1-.2-.3-.4-.4-.6,0,0-.1-.1-.2,0-.9.2-1.9.3-2.8.5-.2,0-.5,0-.8.1,0,0-.1,0-.2,0-.4-.4-.8-.8-1.1-1.2,0,0,0-.1,0-.1,0,0,0,0,.1-.1.4-.1.7,0,1,.2.1,0,.3.2.4.3.3.2.5.2.8.1.6-.2,1.2-.3,1.8-.5,0,0,0,0,.2,0-.9-.7-1.7-1.4-2.6-2.2.4,0,.7,0,1.1,0,.3.1.6.3,1,.4.8.4,1.6.7,2.4,1.1.5.2.9.2,1.4.1.5,0,1.1-.1,1.6-.2.2,0,.4,0,.6,0,.2,0,.3.2.4.4Z"/>
  </g>
  <g>
    <path class="st10" d="M15.1,22.1h-.6v-.4h1.6v.4h-.6v1.5h-.4v-1.5Z"/>
    <path class="st12" d="M16.7,23.5c-.2,0-.3-.2-.4-.3s-.1-.3-.1-.5,0-.3.1-.5c0-.1.2-.3.4-.3.2,0,.3-.1.5-.1s.4,0,.5.1c.2,0,.3.2.4.3,0,.1.1.3.1.5s0,.3-.1.5c0,.1-.2.3-.4.3-.2,0-.3.1-.5.1s-.4,0-.5-.1ZM17.5,23.2c0,0,.2-.1.2-.2,0,0,0-.2,0-.3s0-.2,0-.3-.1-.2-.2-.2c0,0-.2,0-.3,0s-.2,0-.3,0c0,0-.2.1-.2.2,0,0,0,.2,0,.3s0,.2,0,.3c0,0,.1.2.2.2,0,0,.2,0,.3,0s.2,0,.3,0Z"/>
    <path class="st16" d="M18.8,23.4c-.1-.1-.2-.4-.2-.6v-1h.4v1c0,.3.1.5.4.5s.2,0,.3-.1c0,0,.1-.2.1-.4v-1h.4v1c0,.3,0,.5-.2.6-.1.1-.4.2-.6.2s-.5,0-.6-.2Z"/>
    <path class="st9" d="M21.8,23.6l-.4-.5h-.4v.5h-.4v-1.9h.8c.2,0,.3,0,.4,0,.1,0,.2.1.3.2,0,.1,0,.2,0,.4s0,.3,0,.4-.2.2-.3.2l.4.6h-.5ZM21.7,22.2c0,0-.2,0-.3,0h-.4v.6h.4c.1,0,.2,0,.3,0,0,0,.1-.1.1-.2s0-.2-.1-.2Z"/>
    <path class="st5" d="M22.8,23.6c-.1,0-.2,0-.3-.2v-.3c.2,0,.3.1.4.1.1,0,.2,0,.3,0s.2,0,.3,0c0,0,0,0,0-.1s0,0,0-.1,0,0-.1,0c0,0-.1,0-.2,0-.1,0-.3,0-.3-.1,0,0-.2,0-.2-.2,0,0,0-.2,0-.3s0-.2,0-.3.1-.2.3-.2c.1,0,.3,0,.4,0s.2,0,.3,0,.2,0,.3.1v.3c-.3,0-.5-.1-.6-.1s-.2,0-.3,0c0,0,0,0,0,.2s0,.1,0,.1.2,0,.3,0c.1,0,.3,0,.3.1,0,0,.2,0,.2.2,0,0,0,.2,0,.3s0,.2,0,.3c0,0-.1.2-.3.2s-.3,0-.4,0-.3,0-.4,0Z"/>
    <path class="st3" d="M26.3,23.2h-.9l-.2.4h-.4l.8-1.9h.4l.8,1.9h-.5l-.2-.4ZM26.1,22.9l-.3-.7-.3.7h.6Z"/>
    <path class="st1" d="M28.8,21.8v1.9h-.4l-.9-1.1v1.1h-.4v-1.9h.4l.9,1.1v-1.1h.4Z"/>
    <path class="st6" d="M29.2,21.8h.8c.2,0,.4,0,.5.1.2,0,.3.2.4.3,0,.1.1.3.1.5s0,.3-.1.5c0,.1-.2.2-.4.3-.2,0-.3.1-.5.1h-.8v-1.9ZM30.1,23.3c.2,0,.3,0,.4-.2.1-.1.2-.2.2-.4s0-.3-.2-.4c-.1-.1-.3-.2-.4-.2h-.4v1.2h.4Z"/>
    <path class="st8" d="M32.6,22.1h-.6v-.4h1.6v.4h-.6v1.5h-.4v-1.5Z"/>
    <path class="st17" d="M35,23.6l-.4-.5h-.4v.5h-.4v-1.9h.8c.2,0,.3,0,.4,0,.1,0,.2.1.3.2,0,.1,0,.2,0,.4s0,.3,0,.4-.2.2-.3.2l.4.6h-.5ZM34.9,22.2c0,0-.2,0-.3,0h-.4v.6h.4c.1,0,.2,0,.3,0,0,0,.1-.1.1-.2s0-.2-.1-.2Z"/>
    <path class="st11" d="M37,23.2h-.9l-.2.4h-.4l.8-1.9h.4l.8,1.9h-.5l-.2-.4ZM36.9,22.9l-.3-.7-.3.7h.6Z"/>
    <path class="st14" d="M39.5,21.8l-.8,1.9h-.4l-.8-1.9h.5l.6,1.3.6-1.3h.4Z"/>
    <path class="st7" d="M41.1,23.3v.3h-1.4v-1.9h1.4v.3h-1v.4h.9v.3h-.9v.4h1Z"/>
    <path class="st15" d="M41.4,21.8h.4v1.5h.9v.4h-1.4v-1.9Z"/>
    <path class="st4" d="M43.2,23.6c-.1,0-.2,0-.3-.2v-.3c.2,0,.3.1.4.1.1,0,.2,0,.3,0s.2,0,.3,0c0,0,0,0,0-.1s0,0,0-.1,0,0-.1,0c0,0-.1,0-.2,0-.1,0-.3,0-.3-.1,0,0-.2,0-.2-.2,0,0,0-.2,0-.3s0-.2,0-.3.1-.2.3-.2c.1,0,.3,0,.4,0s.2,0,.3,0,.2,0,.3.1v.3c-.3,0-.5-.1-.6-.1s-.2,0-.3,0c0,0,0,0,0,.2s0,.1,0,.1.2,0,.3,0c.1,0,.3,0,.3.1,0,0,.2,0,.2.2,0,0,0,.2,0,.3s0,.2,0,.3c0,0-.1.2-.3.2s-.3,0-.4,0-.3,0-.4,0Z"/>
  </g>
</svg>